<?xml version="1.0" encoding="UTF-8"?>
<svg xmlns="http://www.w3.org/2000/svg" xmlns:xlink="http://www.w3.org/1999/xlink" width="70px" height="70px" viewBox="0 0 70 70" version="1.1">
<g id="surface1">
<path style=" stroke:none;fill-rule:nonzero;fill:rgb(99.607843%,94.901961%,94.509804%);fill-opacity:1;" d="M 34.941406 0.628906 C 35.039062 0.628906 35.039062 0.628906 35.140625 0.628906 C 40.253906 0.644531 45.316406 1.773438 49.933594 3.964844 C 50.015625 4.003906 50.09375 4.042969 50.179688 4.082031 C 52.160156 5.019531 54.011719 6.144531 55.757812 7.46875 C 55.816406 7.515625 55.875 7.558594 55.933594 7.601562 C 57.007812 8.417969 58.058594 9.273438 59 10.242188 C 59.167969 10.40625 59.335938 10.554688 59.515625 10.703125 C 59.804688 10.945312 60.042969 11.207031 60.285156 11.492188 C 60.472656 11.710938 60.667969 11.917969 60.863281 12.125 C 61.488281 12.789062 62.058594 13.476562 62.601562 14.203125 C 62.648438 14.265625 62.695312 14.328125 62.746094 14.394531 C 66.53125 19.453125 68.910156 25.433594 69.539062 31.726562 C 69.546875 31.808594 69.554688 31.890625 69.5625 31.976562 C 69.660156 33.011719 69.652344 34.050781 69.652344 35.09375 C 69.652344 35.242188 69.652344 35.242188 69.652344 35.398438 C 69.652344 36.988281 69.59375 38.542969 69.351562 40.117188 C 69.328125 40.273438 69.328125 40.273438 69.304688 40.433594 C 68.171875 47.921875 64.582031 54.535156 59.269531 59.875 C 59.175781 59.96875 59.085938 60.058594 58.992188 60.152344 C 58.378906 60.773438 57.738281 61.339844 57.054688 61.882812 C 56.949219 61.972656 56.84375 62.058594 56.738281 62.148438 C 49.890625 67.859375 40.621094 70.347656 31.8125 69.601562 C 25.289062 68.996094 18.933594 66.59375 13.777344 62.53125 C 13.703125 62.472656 13.628906 62.414062 13.550781 62.355469 C 13.316406 62.171875 13.085938 61.980469 12.851562 61.792969 C 12.722656 61.6875 12.722656 61.6875 12.59375 61.582031 C 11.792969 60.929688 11.058594 60.207031 10.328125 59.480469 C 10.25 59.402344 10.25 59.402344 10.171875 59.324219 C 9.511719 58.671875 8.902344 58 8.324219 57.273438 C 8.242188 57.179688 8.164062 57.082031 8.082031 56.988281 C 3.679688 51.871094 1.15625 45.210938 0.460938 38.550781 C 0.449219 38.425781 0.449219 38.425781 0.433594 38.296875 C 0.34375 37.292969 0.347656 36.289062 0.347656 35.28125 C 0.347656 35.1875 0.347656 35.089844 0.347656 34.992188 C 0.347656 33.394531 0.414062 31.832031 0.648438 30.25 C 0.664062 30.144531 0.679688 30.039062 0.695312 29.929688 C 1.167969 26.777344 2.105469 23.746094 3.421875 20.84375 C 3.453125 20.769531 3.488281 20.695312 3.519531 20.621094 C 4.566406 18.300781 5.910156 16.105469 7.488281 14.109375 C 7.535156 14.054688 7.578125 13.996094 7.625 13.941406 C 8.480469 12.867188 9.375 11.84375 10.355469 10.882812 C 10.597656 10.644531 10.835938 10.40625 11.070312 10.164062 C 11.664062 9.558594 12.277344 9.011719 12.945312 8.484375 C 13.050781 8.398438 13.152344 8.316406 13.257812 8.230469 C 19.300781 3.269531 27.136719 0.613281 34.941406 0.628906 Z M 34.941406 0.628906 "/>
<path style=" stroke:none;fill-rule:nonzero;fill:rgb(32.156864%,8.235294%,9.019608%);fill-opacity:1;" d="M 34.941406 0.628906 C 35.039062 0.628906 35.039062 0.628906 35.140625 0.628906 C 40.253906 0.644531 45.316406 1.773438 49.933594 3.964844 C 50.015625 4.003906 50.09375 4.042969 50.179688 4.082031 C 52.160156 5.019531 54.011719 6.144531 55.757812 7.46875 C 55.816406 7.515625 55.875 7.558594 55.933594 7.601562 C 57.007812 8.417969 58.058594 9.273438 59 10.242188 C 59.167969 10.40625 59.335938 10.554688 59.515625 10.703125 C 59.804688 10.945312 60.042969 11.207031 60.285156 11.492188 C 60.472656 11.710938 60.667969 11.917969 60.863281 12.125 C 61.488281 12.789062 62.058594 13.476562 62.601562 14.203125 C 62.648438 14.265625 62.695312 14.328125 62.746094 14.394531 C 66.53125 19.453125 68.910156 25.433594 69.539062 31.726562 C 69.546875 31.808594 69.554688 31.890625 69.5625 31.976562 C 69.660156 33.011719 69.652344 34.050781 69.652344 35.09375 C 69.652344 35.242188 69.652344 35.242188 69.652344 35.398438 C 69.652344 36.988281 69.59375 38.542969 69.351562 40.117188 C 69.328125 40.273438 69.328125 40.273438 69.304688 40.433594 C 68.171875 47.921875 64.582031 54.535156 59.269531 59.875 C 59.175781 59.96875 59.085938 60.058594 58.992188 60.152344 C 58.378906 60.773438 57.738281 61.339844 57.054688 61.882812 C 56.949219 61.972656 56.84375 62.058594 56.738281 62.148438 C 49.890625 67.859375 40.621094 70.347656 31.8125 69.601562 C 25.289062 68.996094 18.933594 66.59375 13.777344 62.53125 C 13.703125 62.472656 13.628906 62.414062 13.550781 62.355469 C 13.316406 62.171875 13.085938 61.980469 12.851562 61.792969 C 12.722656 61.6875 12.722656 61.6875 12.59375 61.582031 C 11.792969 60.929688 11.058594 60.207031 10.328125 59.480469 C 10.25 59.402344 10.25 59.402344 10.171875 59.324219 C 9.511719 58.671875 8.902344 58 8.324219 57.273438 C 8.242188 57.179688 8.164062 57.082031 8.082031 56.988281 C 3.679688 51.871094 1.15625 45.210938 0.460938 38.550781 C 0.449219 38.425781 0.449219 38.425781 0.433594 38.296875 C 0.34375 37.292969 0.347656 36.289062 0.347656 35.28125 C 0.347656 35.1875 0.347656 35.089844 0.347656 34.992188 C 0.347656 33.394531 0.414062 31.832031 0.648438 30.25 C 0.664062 30.144531 0.679688 30.039062 0.695312 29.929688 C 1.167969 26.777344 2.105469 23.746094 3.421875 20.84375 C 3.453125 20.769531 3.488281 20.695312 3.519531 20.621094 C 4.566406 18.300781 5.910156 16.105469 7.488281 14.109375 C 7.535156 14.054688 7.578125 13.996094 7.625 13.941406 C 8.480469 12.867188 9.375 11.84375 10.355469 10.882812 C 10.597656 10.644531 10.835938 10.40625 11.070312 10.164062 C 11.664062 9.558594 12.277344 9.011719 12.945312 8.484375 C 13.050781 8.398438 13.152344 8.316406 13.257812 8.230469 C 19.300781 3.269531 27.136719 0.613281 34.941406 0.628906 Z M 13.039062 9.5 C 12.96875 9.558594 12.902344 9.617188 12.832031 9.675781 C 12.652344 9.832031 12.476562 9.988281 12.296875 10.144531 C 12.230469 10.203125 12.164062 10.261719 12.09375 10.324219 C 11.148438 11.15625 10.246094 12.042969 9.433594 13.003906 C 9.351562 13.09375 9.273438 13.183594 9.1875 13.277344 C 7.414062 15.28125 5.765625 17.632812 4.710938 20.097656 C 4.617188 20.300781 4.511719 20.488281 4.398438 20.683594 C 4.148438 21.113281 3.980469 21.570312 3.808594 22.035156 C 3.71875 22.265625 3.625 22.480469 3.507812 22.699219 C 3.097656 23.488281 2.886719 24.332031 2.675781 25.191406 C 2.378906 26.402344 2.378906 26.402344 2.21875 26.5625 C 2.1875 26.695312 2.160156 26.832031 2.132812 26.96875 C 2.117188 27.054688 2.101562 27.136719 2.082031 27.222656 C 2.050781 27.386719 2.023438 27.550781 1.992188 27.714844 C 1.894531 28.210938 1.777344 28.691406 1.636719 29.175781 C 1.480469 29.769531 1.453125 30.359375 1.421875 30.96875 C 1.421875 31.039062 1.417969 31.105469 1.414062 31.171875 C 1.410156 31.234375 1.40625 31.292969 1.40625 31.355469 C 1.386719 31.542969 1.386719 31.542969 1.34375 31.753906 C 1.101562 33 1.183594 34.347656 1.183594 35.613281 C 1.183594 35.925781 1.183594 36.234375 1.179688 36.546875 C 1.179688 36.746094 1.179688 36.945312 1.179688 37.148438 C 1.179688 37.238281 1.179688 37.332031 1.179688 37.425781 C 1.179688 37.914062 1.222656 38.355469 1.34375 38.832031 C 1.398438 39.0625 1.429688 39.296875 1.460938 39.535156 C 1.46875 39.625 1.480469 39.714844 1.492188 39.808594 C 1.515625 39.992188 1.535156 40.175781 1.558594 40.363281 C 1.617188 40.851562 1.707031 41.304688 1.847656 41.777344 C 1.882812 42.007812 1.910156 42.238281 1.9375 42.46875 C 1.996094 43.003906 1.996094 43.003906 2.171875 43.507812 C 2.300781 43.78125 2.347656 43.972656 2.394531 44.269531 C 2.488281 44.820312 2.640625 45.339844 2.816406 45.871094 C 2.855469 46.003906 2.855469 46.003906 2.898438 46.140625 C 3.035156 46.5625 3.171875 46.9375 3.421875 47.3125 C 3.476562 47.4375 3.527344 47.566406 3.578125 47.691406 C 3.765625 48.171875 3.957031 48.648438 4.15625 49.121094 C 4.183594 49.195312 4.214844 49.269531 4.246094 49.34375 C 4.425781 49.78125 4.632812 50.171875 4.894531 50.5625 C 5.03125 50.789062 5.109375 51.023438 5.179688 51.277344 C 5.238281 51.277344 5.300781 51.277344 5.363281 51.277344 C 5.382812 51.351562 5.402344 51.421875 5.421875 51.5 C 5.59375 51.945312 5.835938 52.332031 6.089844 52.738281 C 6.144531 52.820312 6.199219 52.90625 6.253906 52.996094 C 7.25 54.574219 8.347656 56.082031 9.617188 57.457031 C 9.726562 57.578125 9.832031 57.703125 9.941406 57.824219 C 10.683594 58.675781 11.429688 59.5 12.285156 60.238281 C 12.417969 60.351562 12.550781 60.472656 12.679688 60.589844 C 13.40625 61.261719 14.1875 61.851562 14.980469 62.4375 C 15.042969 62.484375 15.105469 62.53125 15.167969 62.578125 C 16.3125 63.425781 17.53125 64.140625 18.769531 64.835938 C 18.875 64.894531 18.875 64.894531 18.980469 64.957031 C 21.457031 66.359375 24.152344 67.296875 26.910156 67.972656 C 26.996094 67.992188 27.082031 68.015625 27.175781 68.035156 C 27.429688 68.101562 27.6875 68.164062 27.945312 68.226562 C 28.019531 68.242188 28.09375 68.261719 28.171875 68.28125 C 30.363281 68.800781 32.59375 68.921875 34.839844 68.917969 C 34.972656 68.917969 34.972656 68.917969 35.113281 68.917969 C 37.441406 68.910156 39.699219 68.726562 41.980469 68.246094 C 42.070312 68.230469 42.15625 68.210938 42.246094 68.191406 C 43.472656 67.933594 44.660156 67.589844 45.847656 67.179688 C 45.910156 67.160156 45.972656 67.136719 46.035156 67.117188 C 46.445312 66.976562 46.847656 66.828125 47.253906 66.679688 C 47.417969 66.621094 47.417969 66.621094 47.582031 66.5625 C 47.683594 66.523438 47.785156 66.484375 47.890625 66.445312 C 47.976562 66.414062 48.066406 66.382812 48.160156 66.347656 C 48.382812 66.234375 48.382812 66.234375 48.449219 65.996094 C 48.457031 65.726562 48.417969 65.621094 48.277344 65.398438 C 48.234375 65.332031 48.195312 65.265625 48.152344 65.195312 C 48.105469 65.128906 48.0625 65.058594 48.015625 64.984375 C 47.945312 64.875 47.945312 64.875 47.875 64.761719 C 45.804688 61.539062 42.953125 58.886719 39.113281 58.011719 C 38.679688 57.960938 38.253906 57.957031 37.816406 57.957031 C 37.632812 57.957031 37.449219 57.953125 37.265625 57.953125 C 37.011719 57.949219 36.757812 57.949219 36.503906 57.949219 C 36.003906 57.945312 35.5 57.941406 35 57.9375 C 34.816406 57.933594 34.632812 57.933594 34.449219 57.933594 C 33.40625 57.921875 32.367188 57.886719 31.324219 57.835938 C 31.144531 57.828125 30.96875 57.820312 30.789062 57.816406 C 30.695312 57.8125 30.605469 57.808594 30.507812 57.804688 C 30.425781 57.800781 30.34375 57.796875 30.257812 57.792969 C 29.304688 57.742188 28.777344 57.519531 28.109375 56.8125 C 27.976562 56.683594 27.835938 56.558594 27.699219 56.433594 C 27.558594 56.304688 27.417969 56.175781 27.277344 56.046875 C 26.941406 55.738281 26.589844 55.457031 26.234375 55.175781 C 25.882812 54.882812 25.542969 54.570312 25.203125 54.261719 C 24.945312 54.023438 24.679688 53.792969 24.414062 53.5625 C 24.199219 53.375 23.992188 53.1875 23.78125 52.996094 C 23.46875 52.710938 23.148438 52.441406 22.816406 52.175781 C 22.285156 51.746094 21.789062 51.285156 21.289062 50.816406 C 21.007812 50.554688 20.71875 50.300781 20.425781 50.046875 C 20.21875 49.867188 20.011719 49.679688 19.804688 49.492188 C 19.480469 49.199219 19.148438 48.917969 18.804688 48.644531 C 18.433594 48.34375 18.097656 48.027344 17.761719 47.683594 C 17.542969 47.46875 17.308594 47.28125 17.066406 47.085938 C 16.65625 46.757812 16.285156 46.410156 15.914062 46.03125 C 15.675781 45.792969 15.425781 45.574219 15.171875 45.355469 C 14.257812 44.570312 13.375 43.742188 12.492188 42.914062 C 12.429688 42.859375 12.371094 42.800781 12.304688 42.742188 C 12.1875 42.632812 12.070312 42.523438 11.957031 42.414062 C 11.238281 41.722656 11.238281 41.722656 10.402344 41.183594 C 9.925781 40.910156 9.554688 40.550781 9.167969 40.164062 C 9.105469 40.105469 9.046875 40.046875 8.984375 39.984375 C 8.726562 39.722656 8.492188 39.464844 8.292969 39.152344 C 8.242188 39.074219 8.191406 39 8.136719 38.917969 C 8.078125 38.917969 8.015625 38.917969 7.953125 38.917969 C 7.769531 38.460938 7.71875 38.113281 7.765625 37.628906 C 7.941406 37.402344 8.070312 37.292969 8.324219 37.167969 C 8.746094 37.132812 9.140625 37.136719 9.546875 37.253906 C 9.882812 37.347656 10.152344 37.371094 10.496094 37.386719 C 12.765625 37.535156 14.46875 38.855469 16.273438 40.117188 C 16.4375 40.230469 16.597656 40.34375 16.761719 40.457031 C 17.214844 40.773438 17.671875 41.089844 18.125 41.410156 C 18.265625 41.511719 18.410156 41.609375 18.554688 41.710938 C 18.691406 41.804688 18.824219 41.902344 18.960938 41.996094 C 19.027344 42.042969 19.089844 42.089844 19.15625 42.132812 C 19.445312 42.335938 19.726562 42.539062 20.007812 42.75 C 20.097656 42.816406 20.1875 42.882812 20.28125 42.953125 C 20.394531 43.042969 20.394531 43.042969 20.511719 43.132812 C 20.726562 43.285156 20.726562 43.285156 21.082031 43.253906 C 21.121094 42.832031 21.15625 42.410156 21.191406 41.988281 C 21.203125 41.835938 21.21875 41.683594 21.230469 41.53125 C 21.292969 40.777344 21.359375 40.023438 21.402344 39.265625 C 21.484375 37.804688 21.660156 36.367188 21.859375 34.917969 C 22.0625 33.464844 22.183594 32.019531 22.238281 30.550781 C 22.242188 30.480469 22.246094 30.410156 22.246094 30.339844 C 22.253906 30.152344 22.261719 29.964844 22.265625 29.777344 C 22.285156 29.511719 22.285156 29.511719 22.378906 29.421875 C 22.390625 29.25 22.398438 29.082031 22.40625 28.914062 C 22.460938 28.234375 22.589844 27.714844 23.101562 27.242188 C 23.472656 27.082031 23.65625 27.09375 24.042969 27.207031 C 24.503906 27.476562 24.660156 27.847656 24.875 28.3125 C 25.011719 28.558594 25.148438 28.773438 25.332031 28.988281 C 26.582031 30.605469 26.296875 33.054688 26.28125 34.980469 C 26.277344 35.34375 26.277344 35.703125 26.273438 36.066406 C 26.273438 36.773438 26.265625 37.476562 26.261719 38.183594 C 26.492188 37.902344 26.679688 37.65625 26.816406 37.324219 C 26.933594 37.046875 27.054688 36.78125 27.191406 36.515625 C 27.3125 36.28125 27.402344 36.0625 27.492188 35.8125 C 27.617188 35.464844 27.789062 35.152344 27.964844 34.828125 C 28.203125 34.394531 28.410156 33.96875 28.582031 33.507812 C 28.664062 33.292969 28.664062 33.292969 28.808594 33.039062 C 28.957031 32.707031 28.964844 32.527344 28.933594 32.164062 C 28.925781 32.050781 28.914062 31.933594 28.90625 31.816406 C 28.898438 31.722656 28.898438 31.722656 28.890625 31.625 C 28.859375 31.285156 28.839844 30.941406 28.816406 30.597656 C 28.808594 30.519531 28.804688 30.445312 28.800781 30.367188 C 28.730469 29.265625 28.71875 28.160156 28.699219 27.058594 C 28.699219 26.898438 28.699219 26.898438 28.695312 26.734375 C 28.683594 26.121094 28.675781 25.511719 28.664062 24.902344 C 29.613281 24.902344 30.558594 24.902344 31.53125 24.902344 C 31.613281 23.90625 31.691406 22.910156 31.769531 21.914062 C 31.808594 21.449219 31.84375 20.988281 31.882812 20.523438 C 31.898438 20.34375 31.910156 20.164062 31.925781 19.988281 C 31.933594 19.898438 31.9375 19.808594 31.945312 19.71875 C 31.984375 19.269531 32.019531 18.820312 32.054688 18.371094 C 32.066406 18.191406 32.082031 18.011719 32.097656 17.832031 C 32.101562 17.746094 32.109375 17.65625 32.117188 17.566406 C 32.15625 17.058594 32.199219 16.550781 32.242188 16.039062 C 32.269531 15.722656 32.296875 15.40625 32.320312 15.09375 C 32.332031 14.949219 32.34375 14.804688 32.359375 14.660156 C 32.472656 13.363281 32.457031 12.101562 32.457031 10.789062 C 34.136719 10.789062 35.8125 10.789062 37.542969 10.789062 C 37.542969 11.550781 37.542969 12.3125 37.542969 13.097656 C 37.578125 13.699219 37.578125 13.699219 37.636719 14.296875 C 37.695312 14.296875 37.757812 14.296875 37.820312 14.296875 C 37.820312 14.355469 37.816406 14.417969 37.816406 14.480469 C 37.796875 15.546875 37.894531 16.605469 37.980469 17.667969 C 38 17.878906 38.015625 18.085938 38.03125 18.296875 C 38.074219 18.84375 38.121094 19.390625 38.164062 19.9375 C 38.207031 20.496094 38.253906 21.054688 38.296875 21.617188 C 38.382812 22.710938 38.472656 23.804688 38.558594 24.902344 C 39.476562 24.902344 40.390625 24.902344 41.335938 24.902344 C 41.277344 30.320312 41.277344 30.320312 40.964844 32.742188 C 40.945312 32.914062 40.925781 33.089844 40.902344 33.265625 C 40.761719 34.429688 40.488281 35.554688 40.179688 36.6875 C 40.121094 36.902344 40.121094 36.902344 40.132812 37.167969 C 40.070312 37.167969 40.011719 37.167969 39.945312 37.167969 C 39.925781 37.230469 39.90625 37.289062 39.882812 37.351562 C 39.789062 37.632812 39.691406 37.914062 39.59375 38.191406 C 39.5625 38.289062 39.527344 38.386719 39.496094 38.484375 C 39.332031 38.957031 39.160156 39.398438 38.929688 39.84375 C 38.929688 39.902344 38.929688 39.964844 38.929688 40.027344 C 38.867188 40.027344 38.808594 40.027344 38.746094 40.027344 C 38.617188 40.183594 38.617188 40.183594 38.503906 40.382812 C 38.460938 40.449219 38.417969 40.515625 38.378906 40.585938 C 38.269531 40.757812 38.269531 40.757812 38.28125 40.949219 C 36.757812 40.949219 35.230469 40.949219 33.660156 40.949219 C 33.445312 41.4375 33.230469 41.921875 33.011719 42.425781 C 32.648438 43.09375 32.648438 43.09375 32.484375 43.375 C 32.335938 43.632812 32.335938 43.632812 32.363281 43.992188 C 32.304688 43.992188 32.242188 43.992188 32.179688 43.992188 C 32.148438 44.113281 32.117188 44.234375 32.085938 44.359375 C 32.804688 44.40625 33.523438 44.445312 34.242188 44.488281 C 34.351562 44.496094 34.464844 44.5 34.578125 44.507812 C 35.898438 44.582031 37.222656 44.648438 38.546875 44.683594 C 38.664062 44.6875 38.785156 44.691406 38.910156 44.695312 C 39.488281 44.710938 40.066406 44.726562 40.644531 44.738281 C 42.515625 44.785156 44.378906 44.949219 46.148438 45.582031 C 46.253906 45.617188 46.355469 45.65625 46.464844 45.691406 C 49.308594 46.703125 51.652344 48.550781 53.261719 51.09375 C 53.320312 51.183594 53.378906 51.273438 53.4375 51.367188 C 53.71875 51.816406 53.925781 52.25 54.09375 52.753906 C 54.15625 52.753906 54.21875 52.753906 54.28125 52.753906 C 54.304688 52.835938 54.328125 52.914062 54.355469 53 C 54.460938 53.296875 54.585938 53.535156 54.753906 53.804688 C 54.84375 53.945312 54.84375 53.945312 54.933594 54.089844 C 54.996094 54.191406 55.058594 54.292969 55.125 54.394531 C 55.191406 54.503906 55.257812 54.609375 55.324219 54.714844 C 56.304688 56.292969 57.304688 57.855469 58.347656 59.394531 C 58.683594 59.339844 58.835938 59.214844 59.070312 58.972656 C 59.136719 58.90625 59.203125 58.839844 59.269531 58.769531 C 59.488281 58.53125 59.703125 58.296875 59.910156 58.050781 C 60.066406 57.871094 60.222656 57.691406 60.382812 57.515625 C 61.367188 56.394531 62.25 55.230469 63.082031 53.992188 C 63.117188 53.941406 63.152344 53.886719 63.191406 53.832031 C 64.070312 52.714844 64.070312 52.714844 64.542969 51.460938 C 64.605469 51.460938 64.667969 51.460938 64.730469 51.460938 C 64.773438 51.355469 64.820312 51.246094 64.867188 51.132812 C 65.078125 50.660156 65.320312 50.207031 65.570312 49.753906 C 65.933594 49.089844 66.195312 48.402344 66.441406 47.6875 C 66.496094 47.527344 66.550781 47.371094 66.605469 47.210938 C 66.632812 47.136719 66.65625 47.058594 66.683594 46.980469 C 66.757812 46.769531 66.839844 46.5625 66.917969 46.351562 C 67.027344 46.054688 67.09375 45.785156 67.132812 45.46875 C 67.195312 45.46875 67.253906 45.46875 67.320312 45.46875 C 67.332031 45.390625 67.347656 45.3125 67.363281 45.234375 C 67.484375 44.628906 67.628906 44.054688 67.832031 43.472656 C 68.121094 42.636719 68.277344 41.832031 68.242188 40.949219 C 68.304688 40.949219 68.363281 40.949219 68.429688 40.949219 C 68.511719 40.496094 68.554688 40.046875 68.589844 39.589844 C 68.597656 39.472656 68.597656 39.472656 68.609375 39.355469 C 68.75 37.484375 68.84375 35.632812 68.796875 33.753906 C 68.796875 33.652344 68.792969 33.550781 68.792969 33.449219 C 68.753906 31.476562 68.507812 29.613281 68.019531 27.703125 C 67.964844 27.480469 67.921875 27.261719 67.882812 27.035156 C 67.777344 26.492188 67.597656 25.976562 67.417969 25.453125 C 67.210938 24.851562 67.007812 24.246094 66.828125 23.636719 C 66.527344 22.648438 66.117188 21.730469 65.644531 20.816406 C 65.449219 20.441406 65.273438 20.058594 65.101562 19.671875 C 64.984375 19.410156 64.859375 19.160156 64.730469 18.90625 C 64.667969 18.90625 64.605469 18.90625 64.542969 18.90625 C 64.535156 18.839844 64.523438 18.769531 64.511719 18.699219 C 64.453125 18.445312 64.375 18.277344 64.242188 18.054688 C 64.175781 17.945312 64.175781 17.945312 64.109375 17.832031 C 64.0625 17.753906 64.015625 17.679688 63.964844 17.597656 C 63.917969 17.515625 63.867188 17.4375 63.816406 17.351562 C 63.300781 16.515625 62.734375 15.722656 62.140625 14.941406 C 62.09375 14.882812 62.050781 14.824219 62.003906 14.761719 C 61.484375 14.078125 60.9375 13.425781 60.347656 12.800781 C 60.125 12.5625 59.910156 12.324219 59.695312 12.082031 C 58.988281 11.296875 58.234375 10.550781 57.425781 9.867188 C 57.34375 9.796875 57.261719 9.726562 57.175781 9.652344 C 54.875 7.65625 52.316406 6.015625 49.570312 4.703125 C 49.441406 4.640625 49.316406 4.578125 49.1875 4.515625 C 48.105469 3.980469 46.984375 3.582031 45.84375 3.199219 C 45.773438 3.175781 45.703125 3.152344 45.628906 3.128906 C 43.632812 2.460938 41.574219 1.988281 39.492188 1.683594 C 39.417969 1.671875 39.347656 1.660156 39.277344 1.652344 C 30.371094 0.425781 20.828125 3.085938 13.039062 9.5 Z M 13.039062 9.5 "/>
<path style=" stroke:none;fill-rule:nonzero;fill:rgb(99.215686%,99.215686%,99.215686%);fill-opacity:1;" d="M 11.375 38.183594 C 12.644531 38.375 13.710938 39.191406 14.753906 39.894531 C 14.878906 39.976562 15 40.058594 15.121094 40.140625 C 16.101562 40.796875 17.070312 41.464844 18.03125 42.148438 C 18.109375 42.203125 18.183594 42.257812 18.265625 42.3125 C 18.496094 42.476562 18.726562 42.640625 18.957031 42.804688 C 19.027344 42.855469 19.09375 42.902344 19.167969 42.953125 C 19.492188 43.1875 19.792969 43.417969 20.066406 43.714844 C 19.953125 43.75 19.839844 43.785156 19.722656 43.824219 C 19.570312 43.871094 19.417969 43.921875 19.269531 43.96875 C 19.195312 43.992188 19.117188 44.015625 19.042969 44.039062 C 18.5625 44.195312 18.121094 44.367188 17.753906 44.730469 C 17.671875 45.453125 17.671875 45.453125 17.9375 46.101562 C 18.03125 46.167969 18.121094 46.230469 18.214844 46.296875 C 18.332031 46.382812 18.445312 46.46875 18.558594 46.558594 C 18.621094 46.605469 18.6875 46.648438 18.753906 46.699219 C 18.890625 46.800781 19.027344 46.910156 19.15625 47.023438 C 21.597656 49.113281 25.375 49.460938 28.421875 50.046875 C 30.304688 50.410156 32.019531 50.988281 33.652344 52 C 36.324219 53.648438 39.796875 53.898438 42.8125 53.214844 C 42.785156 53.03125 42.753906 52.847656 42.722656 52.660156 C 42.5625 52.675781 42.40625 52.6875 42.246094 52.703125 C 42.160156 52.710938 42.070312 52.714844 41.980469 52.722656 C 41.707031 52.75 41.707031 52.75 41.449219 52.800781 C 39.8125 53.050781 37.921875 52.945312 36.339844 52.476562 C 36.277344 52.457031 36.214844 52.4375 36.148438 52.421875 C 35.238281 52.140625 34.429688 51.703125 33.605469 51.234375 C 31.910156 50.265625 30.28125 49.730469 28.359375 49.378906 C 27.382812 49.199219 26.414062 48.996094 25.445312 48.78125 C 25.375 48.765625 25.304688 48.75 25.230469 48.734375 C 24.210938 48.507812 23.195312 48.261719 22.191406 47.957031 C 22.191406 47.925781 22.191406 47.898438 22.191406 47.867188 C 22.257812 47.863281 22.320312 47.859375 22.386719 47.859375 C 23.203125 47.808594 23.902344 47.617188 24.503906 47.035156 C 24.6875 46.488281 24.691406 45.871094 24.464844 45.339844 C 23.972656 44.839844 23.398438 44.515625 22.746094 44.269531 C 22.746094 44.238281 22.746094 44.207031 22.746094 44.175781 C 25.042969 44.074219 27.359375 44.40625 29.632812 44.695312 C 29.710938 44.707031 29.792969 44.714844 29.875 44.726562 C 30.207031 44.769531 30.523438 44.824219 30.851562 44.914062 C 31.566406 45.070312 32.304688 45.070312 33.035156 45.101562 C 33.203125 45.109375 33.367188 45.117188 33.535156 45.125 C 33.886719 45.140625 34.238281 45.15625 34.589844 45.171875 C 35.03125 45.191406 35.46875 45.210938 35.910156 45.234375 C 38.027344 45.332031 38.027344 45.332031 40.140625 45.402344 C 40.214844 45.402344 40.289062 45.40625 40.363281 45.40625 C 40.707031 45.417969 41.050781 45.425781 41.394531 45.429688 C 45.144531 45.515625 48.636719 46.851562 51.277344 49.550781 C 52.121094 50.476562 53.15625 51.675781 53.355469 52.9375 C 53.417969 52.9375 53.476562 52.9375 53.539062 52.9375 C 53.585938 53.019531 53.628906 53.101562 53.671875 53.183594 C 54.320312 54.359375 55.039062 55.492188 55.757812 56.628906 C 55.816406 56.71875 55.875 56.8125 55.9375 56.90625 C 56.105469 57.175781 56.277344 57.441406 56.449219 57.710938 C 56.5 57.796875 56.554688 57.878906 56.609375 57.964844 C 56.835938 58.320312 57.0625 58.671875 57.300781 59.011719 C 57.371094 59.109375 57.441406 59.207031 57.511719 59.308594 C 57.570312 59.386719 57.625 59.464844 57.6875 59.546875 C 57.792969 59.761719 57.792969 59.761719 57.792969 59.996094 C 57.417969 60.945312 55.914062 61.75 55.113281 62.34375 C 55.03125 62.40625 55.03125 62.40625 54.945312 62.46875 C 53.550781 63.507812 52.0625 64.386719 50.519531 65.1875 C 50.460938 65.214844 50.40625 65.246094 50.347656 65.273438 C 49.414062 65.757812 49.414062 65.757812 49.195312 65.757812 C 49.148438 65.667969 49.101562 65.582031 49.050781 65.488281 C 47.074219 61.851562 44.105469 58.820312 40.0625 57.589844 C 39.5625 57.445312 39.101562 57.355469 38.578125 57.347656 C 38.417969 57.347656 38.417969 57.347656 38.257812 57.34375 C 38.140625 57.34375 38.027344 57.34375 37.910156 57.34375 C 37.726562 57.339844 37.542969 57.339844 37.359375 57.335938 C 37.164062 57.332031 36.96875 57.332031 36.773438 57.328125 C 33.113281 57.289062 33.113281 57.289062 31.351562 57.179688 C 31.289062 57.175781 31.226562 57.171875 31.160156 57.167969 C 30.878906 57.152344 30.601562 57.132812 30.320312 57.109375 C 30.15625 57.097656 29.996094 57.085938 29.832031 57.082031 C 29.289062 57.050781 29.042969 56.8125 28.683594 56.441406 C 28.570312 56.332031 28.457031 56.222656 28.34375 56.113281 C 28.289062 56.058594 28.234375 56.003906 28.175781 55.949219 C 27.960938 55.742188 27.730469 55.554688 27.5 55.371094 C 27.085938 55.039062 26.695312 54.6875 26.304688 54.328125 C 26.011719 54.058594 25.707031 53.800781 25.394531 53.550781 C 24.929688 53.175781 24.496094 52.773438 24.058594 52.367188 C 23.738281 52.066406 23.414062 51.78125 23.070312 51.507812 C 22.546875 51.089844 22.058594 50.632812 21.566406 50.171875 C 21.285156 49.910156 20.996094 49.65625 20.707031 49.402344 C 20.492188 49.214844 20.277344 49.023438 20.066406 48.835938 C 19.789062 48.585938 19.515625 48.339844 19.234375 48.097656 C 18.796875 47.71875 18.367188 47.328125 17.9375 46.941406 C 17.785156 46.804688 17.632812 46.667969 17.476562 46.527344 C 15.628906 44.867188 15.628906 44.867188 15.394531 44.660156 C 15.246094 44.523438 15.09375 44.390625 14.945312 44.253906 C 14.453125 43.816406 13.96875 43.375 13.484375 42.929688 C 13.246094 42.707031 13.003906 42.484375 12.757812 42.269531 C 12.675781 42.199219 12.59375 42.125 12.507812 42.050781 C 12.433594 41.984375 12.359375 41.921875 12.28125 41.855469 C 12.113281 41.6875 12.113281 41.6875 12.019531 41.410156 C 12.132812 41.246094 12.132812 41.246094 12.292969 41.070312 C 12.5 40.808594 12.617188 40.636719 12.621094 40.296875 C 12.496094 39.320312 12.066406 38.84375 11.375 38.183594 Z M 11.375 38.183594 "/>
<path style=" stroke:none;fill-rule:nonzero;fill:rgb(96.862745%,60.392159%,60.392159%);fill-opacity:1;" d="M 29.40625 25.640625 C 33.097656 25.640625 36.789062 25.640625 40.59375 25.640625 C 40.59375 29.828125 40.457031 33.417969 39.300781 37.351562 C 39.238281 37.351562 39.179688 37.351562 39.113281 37.351562 C 39.109375 37.40625 39.101562 37.460938 39.09375 37.515625 C 38.996094 38.113281 38.792969 38.59375 38.507812 39.125 C 38.386719 39.359375 38.285156 39.59375 38.191406 39.84375 C 38.128906 39.84375 38.066406 39.84375 38.003906 39.84375 C 37.945312 39.964844 37.882812 40.085938 37.820312 40.210938 C 37.097656 40.230469 36.371094 40.25 35.648438 40.257812 C 35.3125 40.261719 34.976562 40.269531 34.636719 40.28125 C 34.3125 40.289062 33.988281 40.296875 33.664062 40.296875 C 33.480469 40.300781 33.296875 40.308594 33.113281 40.316406 C 32.296875 40.316406 32.296875 40.316406 31.960938 40.011719 C 31.792969 39.777344 31.65625 39.550781 31.53125 39.289062 C 31.5 39.226562 31.472656 39.160156 31.441406 39.097656 C 31.367188 38.925781 31.304688 38.75 31.242188 38.574219 C 31.222656 38.511719 31.199219 38.449219 31.175781 38.386719 C 31.109375 38.195312 31.042969 38.003906 30.976562 37.8125 C 30.910156 37.625 30.84375 37.441406 30.777344 37.253906 C 30.71875 37.089844 30.664062 36.925781 30.605469 36.761719 C 30.539062 36.53125 30.539062 36.53125 30.421875 36.429688 C 30.371094 36.167969 30.328125 35.90625 30.285156 35.644531 C 30.261719 35.421875 30.261719 35.421875 30.144531 35.324219 C 30.117188 35.179688 30.097656 35.035156 30.078125 34.894531 C 30.066406 34.808594 30.054688 34.71875 30.042969 34.628906 C 30.019531 34.445312 29.996094 34.261719 29.96875 34.078125 C 29.957031 33.992188 29.945312 33.90625 29.933594 33.816406 C 29.921875 33.734375 29.914062 33.65625 29.902344 33.574219 C 29.886719 33.386719 29.886719 33.386719 29.777344 33.292969 C 29.714844 32.96875 29.679688 32.640625 29.636719 32.3125 C 29.625 32.226562 29.613281 32.136719 29.601562 32.042969 C 29.320312 29.902344 29.40625 27.8125 29.40625 25.640625 Z M 29.40625 25.640625 "/>
<path style=" stroke:none;fill-rule:nonzero;fill:rgb(98.823529%,98.431373%,98.431373%);fill-opacity:1;" d="M 25.152344 30.621094 C 25.613281 31.078125 25.535156 32.050781 25.542969 32.667969 C 25.539062 32.90625 25.539062 33.148438 25.535156 33.386719 C 25.535156 33.519531 25.535156 33.652344 25.535156 33.785156 C 25.53125 34.132812 25.527344 34.484375 25.523438 34.832031 C 25.523438 35.042969 25.519531 35.253906 25.519531 35.464844 C 25.511719 36.316406 25.5 37.164062 25.488281 38.011719 C 25.484375 38.300781 25.480469 38.589844 25.476562 38.878906 C 25.457031 40.429688 25.429688 41.980469 25.335938 43.53125 C 24.175781 43.5 23.019531 43.46875 21.824219 43.4375 C 21.824219 42.84375 21.839844 42.351562 21.914062 41.777344 C 21.925781 41.542969 21.9375 41.3125 21.941406 41.078125 C 21.941406 41.011719 21.945312 40.949219 21.945312 40.882812 C 21.953125 40.679688 21.957031 40.476562 21.960938 40.273438 C 22.019531 37.882812 22.019531 37.882812 22.191406 37.535156 C 22.210938 37.371094 22.21875 37.203125 22.230469 37.035156 C 22.234375 36.929688 22.242188 36.824219 22.246094 36.71875 C 22.253906 36.605469 22.261719 36.492188 22.269531 36.378906 C 22.347656 35.117188 22.523438 33.886719 22.746094 32.648438 C 22.804688 32.664062 22.859375 32.679688 22.917969 32.691406 C 23.335938 32.792969 23.820312 32.832031 24.222656 32.664062 C 24.433594 32.527344 24.578125 32.410156 24.691406 32.1875 C 24.75 32.1875 24.8125 32.1875 24.875 32.1875 C 24.984375 31.664062 25.082031 31.148438 25.152344 30.621094 Z M 25.152344 30.621094 "/>
<path style=" stroke:none;fill-rule:nonzero;fill:rgb(97.647059%,97.254902%,97.254902%);fill-opacity:1;" d="M 29.128906 33.9375 C 29.1875 33.9375 29.25 33.9375 29.3125 33.9375 C 29.324219 34.039062 29.332031 34.136719 29.34375 34.234375 C 29.433594 35.117188 29.433594 35.117188 29.707031 35.953125 C 29.871094 36.429688 29.902344 36.949219 29.960938 37.445312 C 30.019531 37.445312 30.082031 37.445312 30.144531 37.445312 C 30.207031 37.597656 30.269531 37.753906 30.332031 37.910156 C 30.363281 37.996094 30.398438 38.085938 30.433594 38.171875 C 30.816406 39.527344 29.835938 41.335938 29.40625 42.609375 C 29.34375 42.609375 29.285156 42.609375 29.21875 42.609375 C 29.203125 42.691406 29.203125 42.691406 29.1875 42.773438 C 29.171875 42.847656 29.15625 42.917969 29.140625 42.996094 C 29.125 43.066406 29.109375 43.136719 29.09375 43.210938 C 29.03125 43.453125 28.945312 43.671875 28.851562 43.898438 C 26.492188 43.761719 26.492188 43.761719 26.078125 43.625 C 26.066406 42.449219 26.082031 41.289062 26.167969 40.117188 C 26.230469 40.117188 26.292969 40.117188 26.355469 40.117188 C 26.371094 40.066406 26.386719 40.019531 26.402344 39.964844 C 26.542969 39.527344 26.707031 39.105469 26.898438 38.683594 C 27.015625 38.421875 27.125 38.160156 27.234375 37.894531 C 27.359375 37.585938 27.488281 37.289062 27.660156 37 C 27.804688 36.753906 27.917969 36.515625 28.027344 36.25 C 28.136719 36.003906 28.257812 35.765625 28.382812 35.523438 C 28.601562 35.09375 28.792969 34.65625 28.964844 34.203125 C 29.035156 34.03125 29.035156 34.03125 29.128906 33.9375 Z M 29.128906 33.9375 "/>
<path style=" stroke:none;fill-rule:nonzero;fill:rgb(96.078432%,59.607846%,59.607846%);fill-opacity:1;" d="M 20.285156 44.601562 C 20.375 44.601562 20.464844 44.601562 20.558594 44.601562 C 21.664062 44.617188 23.003906 44.796875 23.839844 45.585938 C 24.054688 45.894531 24.015625 46.117188 23.949219 46.480469 C 23.726562 46.859375 23.527344 47 23.117188 47.128906 C 21.640625 47.277344 20.210938 46.914062 18.957031 46.113281 C 18.640625 45.851562 18.425781 45.632812 18.367188 45.21875 C 18.765625 44.550781 19.601562 44.585938 20.285156 44.601562 Z M 20.285156 44.601562 "/>
<path style=" stroke:none;fill-rule:nonzero;fill:rgb(97.647059%,97.254902%,97.254902%);fill-opacity:1;" d="M 31.070312 40.117188 C 31.421875 40.253906 31.550781 40.429688 31.71875 40.765625 C 31.71875 40.824219 31.71875 40.886719 31.71875 40.949219 C 32.082031 40.949219 32.449219 40.949219 32.828125 40.949219 C 32.777344 41.417969 32.613281 41.769531 32.382812 42.171875 C 32.121094 42.640625 31.890625 43.101562 31.707031 43.609375 C 31.609375 43.84375 31.484375 44.054688 31.347656 44.269531 C 31.105469 44.242188 30.863281 44.214844 30.621094 44.1875 C 30.550781 44.179688 30.480469 44.171875 30.410156 44.167969 C 29.890625 44.105469 29.890625 44.105469 29.683594 43.898438 C 29.8125 43.503906 29.941406 43.105469 30.066406 42.707031 C 30.113281 42.574219 30.15625 42.4375 30.199219 42.304688 C 30.261719 42.109375 30.324219 41.914062 30.386719 41.71875 C 30.40625 41.660156 30.425781 41.601562 30.445312 41.539062 C 30.5 41.375 30.554688 41.207031 30.609375 41.039062 C 30.640625 40.941406 30.671875 40.839844 30.703125 40.734375 C 30.792969 40.484375 30.898438 40.320312 31.070312 40.117188 Z M 31.070312 40.117188 "/>
<path style=" stroke:none;fill-rule:nonzero;fill:rgb(99.607843%,82.352942%,82.352942%);fill-opacity:1;" d="M 30.660156 26.554688 C 30.765625 26.558594 30.871094 26.558594 30.976562 26.5625 C 31.136719 26.875 31.089844 27.238281 31.09375 27.585938 C 31.097656 27.761719 31.097656 27.933594 31.101562 28.109375 C 31.105469 28.382812 31.109375 28.65625 31.113281 28.929688 C 31.128906 29.875 31.148438 30.792969 31.304688 31.726562 C 31.371094 32.148438 31.394531 32.566406 31.417969 32.992188 C 31.425781 33.113281 31.425781 33.113281 31.433594 33.238281 C 31.4375 33.316406 31.441406 33.390625 31.445312 33.472656 C 31.449219 33.539062 31.453125 33.605469 31.457031 33.675781 C 31.441406 33.847656 31.441406 33.847656 31.253906 34.03125 C 31.011719 33.996094 31.011719 33.996094 30.792969 33.9375 C 30.636719 32.945312 30.488281 31.949219 30.390625 30.949219 C 30.359375 30.585938 30.359375 30.585938 30.238281 30.25 C 30.230469 29.980469 30.226562 29.714844 30.226562 29.449219 C 30.226562 29.371094 30.226562 29.289062 30.226562 29.207031 C 30.226562 29.039062 30.226562 28.871094 30.226562 28.703125 C 30.226562 28.445312 30.226562 28.1875 30.226562 27.929688 C 30.226562 27.769531 30.226562 27.605469 30.226562 27.441406 C 30.226562 27.363281 30.226562 27.289062 30.226562 27.207031 C 30.226562 26.5625 30.226562 26.5625 30.660156 26.554688 Z M 30.660156 26.554688 "/>
<path style=" stroke:none;fill-rule:nonzero;fill:rgb(93.333334%,57.254905%,57.254905%);fill-opacity:1;" d="M 23.394531 27.851562 C 23.707031 27.878906 23.832031 27.921875 24.058594 28.144531 C 24.480469 28.800781 24.441406 29.457031 24.441406 30.210938 C 24.441406 30.324219 24.445312 30.433594 24.445312 30.550781 C 24.445312 30.660156 24.445312 30.765625 24.445312 30.878906 C 24.445312 30.976562 24.445312 31.074219 24.445312 31.175781 C 24.40625 31.488281 24.320312 31.660156 24.132812 31.910156 C 23.8125 32.125 23.679688 32.125 23.300781 32.09375 C 23.023438 31.910156 23.023438 31.910156 22.933594 31.632812 C 22.910156 31.261719 22.910156 30.886719 22.910156 30.515625 C 22.90625 30.363281 22.90625 30.363281 22.902344 30.207031 C 22.902344 29.578125 22.976562 29.082031 23.210938 28.496094 C 23.277344 28.285156 23.335938 28.070312 23.394531 27.851562 Z M 23.394531 27.851562 "/>
<path style=" stroke:none;fill-rule:nonzero;fill:rgb(95.294118%,58.823532%,58.823532%);fill-opacity:1;" d="M 8.507812 37.8125 C 9.273438 37.707031 9.917969 38.042969 10.542969 38.457031 C 10.941406 38.765625 11.296875 39.117188 11.652344 39.472656 C 11.707031 39.519531 11.761719 39.570312 11.816406 39.617188 C 11.992188 39.824219 11.972656 40.046875 11.960938 40.308594 C 11.929688 40.488281 11.929688 40.488281 11.773438 40.71875 C 11.511719 40.886719 11.402344 40.890625 11.097656 40.855469 C 10.074219 40.300781 8.921875 39.238281 8.414062 38.183594 C 8.445312 37.972656 8.445312 37.972656 8.507812 37.8125 Z M 8.507812 37.8125 "/>
<path style=" stroke:none;fill-rule:nonzero;fill:rgb(60.000002%,13.333334%,17.647059%);fill-opacity:1;" d="M 34.449219 12.433594 C 34.675781 12.449219 34.675781 12.449219 34.769531 12.542969 C 34.773438 12.667969 34.769531 12.792969 34.765625 12.917969 C 34.761719 13 34.757812 13.082031 34.753906 13.164062 C 34.746094 13.300781 34.746094 13.300781 34.738281 13.4375 C 34.734375 13.53125 34.730469 13.621094 34.726562 13.71875 C 34.648438 15.304688 34.554688 16.894531 34.394531 18.472656 C 34.386719 18.546875 34.378906 18.617188 34.371094 18.691406 C 34.316406 19.171875 34.316406 19.171875 34.214844 19.273438 C 33.984375 19.285156 33.984375 19.285156 33.75 19.273438 C 33.722656 19.246094 33.691406 19.214844 33.660156 19.183594 C 33.664062 18.90625 33.671875 18.632812 33.6875 18.359375 C 33.695312 18.230469 33.695312 18.230469 33.703125 18.097656 C 33.742188 17.320312 33.804688 16.542969 33.867188 15.761719 C 33.933594 14.949219 33.972656 14.132812 33.988281 13.316406 C 33.992188 13.230469 33.996094 13.140625 33.996094 13.054688 C 34 12.976562 34 12.898438 34.003906 12.820312 C 34.046875 12.519531 34.15625 12.453125 34.449219 12.433594 Z M 34.449219 12.433594 "/>
<path style=" stroke:none;fill-rule:nonzero;fill:rgb(53.333336%,36.470589%,37.254903%);fill-opacity:1;" d="M 25.058594 30.25 C 25.121094 30.25 25.179688 30.25 25.246094 30.25 C 25.273438 30.433594 25.304688 30.617188 25.335938 30.804688 C 25.304688 30.804688 25.277344 30.804688 25.246094 30.804688 C 25.214844 30.957031 25.183594 31.109375 25.152344 31.265625 C 25.121094 31.265625 25.089844 31.265625 25.058594 31.265625 C 25.058594 30.929688 25.058594 30.59375 25.058594 30.25 Z M 25.058594 30.25 "/>
</g>
</svg>
